<svg xmlns="http://www.w3.org/2000/svg" width="40" height="40" fill="none" viewBox="0 0 40 40"><g id="Group 111"><rect id="Rectangle 109" width="39" height="39" x=".5" y=".5" fill="#101010" stroke="#BFBFBF" rx="10.5"/><path id="Vector" stroke="#fff" stroke-linecap="round" stroke-linejoin="round" stroke-width="2" d="M28 28.2432V26.2468C28 25.1878 27.6049 24.1722 26.9016 23.4234C26.1984 22.6746 25.2446 22.2539 24.25 22.2539H16.75C15.7554 22.2539 14.8016 22.6746 14.0983 23.4234C13.3951 24.1722 13 25.1878 13 26.2468V28.2432"/><path id="Vector_2" stroke="#fff" stroke-linecap="round" stroke-linejoin="round" stroke-width="2" d="M20.5 18.2575C22.9853 18.2575 25 16.2463 25 13.7654C25 11.2846 22.9853 9.27344 20.5 9.27344C18.0147 9.27344 16 11.2846 16 13.7654C16 16.2463 18.0147 18.2575 20.5 18.2575Z"/></g></svg>